<!-- Created with Inkscape (http://www.inkscape.org/) -->
<svg xmlns:rdf="http://www.w3.org/1999/02/22-rdf-syntax-ns#" xmlns="http://www.w3.org/2000/svg" height="354.33" width="708.66" version="1.1" xmlns:cc="http://creativecommons.org/ns#" xmlns:dc="http://purl.org/dc/elements/1.1/">
	<defs>
		<marker id="TriangleOutSJ" refY="0" refX="0" orient="auto">
			<path d="m5.77,0-8.65,5,0-10,8.65,5z" fill-rule="evenodd" transform="scale(0.2,0.2)" stroke="#b4b4b4" stroke-width="1pt" fill="#b4b4b4"/>
		</marker>
	</defs>
	<metadata>
		<rdf:RDF>
			<cc:Work rdf:about="">
				<dc:format>image/svg+xml</dc:format>
				<dc:type rdf:resource="http://purl.org/dc/dcmitype/StillImage"/>
				<dc:title/>
			</cc:Work>
		</rdf:RDF>
	</metadata>
	<g transform="translate(0,177.16536)">
		<path stroke-linejoin="round" d="m94.31-19.259c0,2.7598-4.6177,4.997-10.314,4.997-5.6962,0-10.314-2.2372-10.314-4.997s4.6177-4.997,10.314-4.997c5.6962,0,10.314,2.2372,10.314,4.997z" stroke-dashoffset="0" stroke="#000" stroke-linecap="round" stroke-miterlimit="4" stroke-dasharray="none" stroke-width="3.54330707" fill="none"/>
		<path stroke-linejoin="round" d="m73.682-19.37,0,22.209c0,2.7598,4.6177,4.997,10.314,4.997,5.6962,0,10.314-2.2372,10.314-4.997v-22.32" stroke-dashoffset="0" stroke="#000" stroke-linecap="round" stroke-miterlimit="4" stroke-dasharray="none" stroke-width="3.54330707" fill="none"/>
		<path fill="#000" d="m89.401-19.014c0,0.9754-2.42,1.7661-5.4053,1.7661s-5.4053-0.79072-5.4053-1.7661c0-0.9754,2.42-1.7661,5.4053-1.7661s5.4053,0.79072,5.4053,1.7661z"/>
		<path stroke-linejoin="round" d="m167.24-105.05c0,1.333-2.0248,2.4136-4.5226,2.4136s-4.5226-1.0806-4.5226-2.4136,2.0248-2.4136,4.5226-2.4136,4.5226,1.0806,4.5226,2.4136z" stroke-dashoffset="0" stroke="#000" stroke-linecap="round" stroke-miterlimit="4" stroke-width="3.5433073" fill="none"/>
		<path stroke-linejoin="round" d="m158.19-104.39,0,10.727,0,12.452c0,1.333,2.0248,2.4136,4.5226,2.4136s4.5226-1.0806,4.5226-2.4136v-23.233" stroke-dashoffset="0" stroke="#000" stroke-linecap="round" stroke-miterlimit="4" stroke-dasharray="none" stroke-width="3.54330707" fill="none"/>
		<path stroke-linejoin="round" d="m81.013-104.2c0,2.566-4.2756,4.6462-9.5498,4.6462s-9.5498-2.0802-9.5498-4.6462,4.2756-4.6462,9.5498-4.6462,9.5498,2.0802,9.5498,4.6462z" stroke-dashoffset="0" stroke="#000" stroke-linecap="round" stroke-miterlimit="4" stroke-width="3.54330707" fill="none"/>
		<path stroke-linejoin="round" d="m61.913-104.3,0,20.65c0,2.566,4.2756,4.6462,9.5498,4.6462s9.5498-2.0802,9.5498-4.6462v-20.753" stroke-dashoffset="0" stroke="#000" stroke-linecap="round" stroke-miterlimit="4" stroke-dasharray="none" stroke-width="3.54330707" fill="none"/>
		<text style="letter-spacing:0px;word-spacing:0px;" font-weight="bold" font-variant="normal" font-size="24px" font-stretch="normal" line-height="125%" font-style="oblique" y="-90.483345" x="38.490936" font-family="Thames" xml:space="preserve" fill="#000000"><tspan y="-90.483345" x="38.490936">f<tspan style="baseline-shift:sub;" font-size="65.00091553%" font-style="normal">1</tspan></tspan></text>
		<text style="letter-spacing:0px;word-spacing:0px;" font-weight="bold" xml:space="preserve" font-size="24px" font-stretch="normal" line-height="125%" font-variant="normal" y="-88.340485" x="134.56236" font-family="Thames" font-style="oblique" fill="#000000"><tspan x="134.56236" y="-88.340485">f<tspan style="baseline-shift:sub;" font-size="65.00091553%" font-style="normal">2</tspan></tspan></text>
		<path stroke-linejoin="round" d="M107.06-29.769,72.062-73.34" stroke-dashoffset="0" stroke="#000" stroke-linecap="round" stroke-miterlimit="4" stroke-dasharray="none" stroke-width="3.54330707" fill="none"/>
		<path stroke-linejoin="round" d="M123.85-29.769,158.85-73.34" stroke-dashoffset="0" stroke="#000" stroke-linecap="round" stroke-miterlimit="4" stroke-dasharray="none" stroke-width="3.54330707" fill="none"/>
		<path stroke-linejoin="round" d="m120.7-15.116,0-6.0978,0,0c0-2.9398-2.3967-4.9756-5.3532-4.9756s-5.3532,1.8799-5.3532,4.9756v6.1561" stroke-dashoffset="0" stroke="#000" stroke-linecap="round" stroke-miterlimit="4" stroke-width="3.5433073" fill="none"/>
		<path stroke-linejoin="round" d="m159.56,35.231-35-43.571" stroke-dashoffset="0" stroke="#000" stroke-linecap="round" stroke-miterlimit="4" stroke-dasharray="none" stroke-width="3.54330707" fill="none"/>
		<path stroke-linejoin="round" d="M176.35,35.231,207.42-3.6976" stroke-dashoffset="0" stroke="#000" stroke-linecap="round" stroke-miterlimit="4" stroke-dasharray="none" stroke-width="3.54330707" fill="none"/>
		<path stroke-linejoin="round" d="m173.23,41.044,0,6.0978,0,0c0,2.9398-2.3967,4.9756-5.3532,4.9756s-5.3532-1.8799-5.3532-4.9756v-6.156" stroke-dashoffset="0" stroke="#000" stroke-linecap="round" stroke-miterlimit="4" stroke-width="3.5433073" fill="none"/>
		<text style="letter-spacing:0px;word-spacing:0px;" font-weight="bold" font-variant="normal" font-size="24px" font-stretch="normal" line-height="125%" font-style="oblique" y="78.737488" x="163.43117" font-family="Thames" xml:space="preserve" fill="#000000"><tspan y="78.737488" x="163.43117">f<tspan style="baseline-shift:sub;" font-size="65.00091553%"/></tspan></text>
		<g fill="#b4b4b4" transform="matrix(0.96560313,0,0,1.8063492,-83.008367,-171.3651)">
			<path style="baseline-shift:baseline;block-progression:tb;color:#000000;direction:ltr;text-indent:0;text-align:start;enable-background:accumulate;text-transform:none;" d="m351.95,68.656,0,14.156,30.891,0,0-14.156z" fill-rule="nonzero"/>
			<path d="m399.21,75.737-24.52,14.173,0-28.346,24.52,14.173z" fill-rule="evenodd"/>
		</g>
		<text style="letter-spacing:0px;word-spacing:0px;" font-weight="normal" font-variant="normal" font-stretch="normal" line-height="125%" font-style="normal" y="-133.57912" x="311.20746" font-family="Source Code Pro" xml:space="preserve" fill="#000000"><tspan font-size="16px" y="-133.57912" x="311.20746"><tspan fill="#787878">uint64_t</tspan> cubin[] = {</tspan><tspan font-size="16px" y="-113.57912" x="311.20746" fill="#787878">       ...</tspan><tspan font-size="16px" y="-93.579117" x="311.20746"/><tspan font-size="14px" y="-75.454117" x="311.20746" fill="#787878"> 0x001fd400fc2007e1</tspan><tspan font-size="14px" y="-57.954113" x="311.20746"><tspan font-weight="bold"> 0x3958503f80070403</tspan><tspan fill="#787878"> // FADD R3,|R4|,-1.0</tspan></tspan><tspan font-size="14px" y="-40.454113" x="311.20746"><tspan font-weight="bold"> 0x3958503f00070505</tspan><tspan font-weight="normal" fill="#787878"> // FADD R5,|R5|,-0.5</tspan></tspan><tspan font-size="14px" y="-22.954113" x="311.20746"><tspan font-weight="bold"> 0x3958503e80070604</tspan><tspan font-weight="normal" fill="#787878"> // FADD R4,|R6|,-0.25</tspan></tspan><tspan font-size="14px" y="-5.4541135" x="311.20746" fill="#787878"> 0x001ffc00fe0007f6</tspan><tspan font-size="14px" y="12.045886" x="311.20746"><tspan font-weight="bold"> 0x5c60178000570303</tspan><tspan font-weight="normal" fill="#787878"> // FMNMX R3,R3,R5,!PT</tspan></tspan><tspan font-size="14px" y="29.545887" x="311.20746"><tspan font-weight="bold"> 0x5c60178000370404</tspan><tspan font-weight="normal" fill="#787878"> // FMNMX R4,R4,R3,!PT</tspan></tspan><tspan font-size="16px" y="48.920887" x="311.20746"> </tspan><tspan font-size="16px" y="68.920883" x="311.20746" fill="#787878">       ...</tspan><tspan font-size="16px" y="88.920883" x="311.20746">};</tspan><tspan font-size="16px" y="108.92088" x="311.20746"><tspan fill="#787878">CUmodule</tspan> module;</tspan><tspan font-size="16px" y="128.92088" x="311.20746"><tspan fill="#787878">CUfunction</tspan> fun;</tspan><tspan font-size="16px" y="148.92088" x="311.20746">cuModuleLoadData(&amp;module, cubin)</tspan><tspan font-size="16px" y="168.92088" x="311.20746">cuModuleGetFunction(&amp;fun, module, &quot;f&quot;)</tspan></text>
		<text style="letter-spacing:0px;word-spacing:0px;" font-weight="bold" font-variant="normal" font-size="24px" font-stretch="normal" line-height="125%" font-style="oblique" y="-29.671881" x="173.72552" font-family="Thames" xml:space="preserve" fill="#000000"><tspan y="-29.671881" x="173.72552">f<tspan style="baseline-shift:sub;" font-size="65.00091553%" font-style="normal">3</tspan></tspan></text>
		<rect ry="6.4382" height="48.487" width="84.853" stroke="#b4b4b4" stroke-dasharray="none" stroke-miterlimit="4" y="-57.006" x="162.63" stroke-width="3.5433" fill="none"/>
		<rect ry="20.387" height="145.49" width="364.53" stroke="#b4b4b4" stroke-dasharray="none" stroke-miterlimit="4" y="-98.606" x="308.1" stroke-width="3.5433" fill="none"/>
		<text style="letter-spacing:0px;word-spacing:0px;" font-weight="normal" font-variant="normal" font-size="20px" font-stretch="normal" line-height="125%" font-style="normal" y="-161.99783" x="438.53812" font-family="Source Code Pro" xml:space="preserve" fill="#787878"><tspan font-weight="normal" font-size="16px" font-style="normal" font-stretch="normal" font-variant="normal" y="-161.99783" x="438.53812" font-family="Arial" fill="#787878">NVIDIA SASS</tspan></text>
		<g stroke-linejoin="round" transform="matrix(0.29228316,0,0,0.33737912,212.71578,-46.168438)" stroke-dashoffset="0" stroke="#000" stroke-linecap="butt" stroke-dasharray="none" stroke-miterlimit="4" stroke-width="11.28360271" fill="none">
			<path d="m-44.814,17.875,0,47.477,47.982,19.951,46.72-19.193,0-47.982l-47.225-19.446z"/>
			<path d="M-44.309,18.127,2.9153,37.32,49.887,18.38"/>
			<path d="m3.1679,84.797,0-47.73"/>
		</g>
		<g stroke-linejoin="round" stroke-dashoffset="0" transform="matrix(0.38689373,0,0,0.44658702,129.26152,42.46)" stroke="#000" stroke-linecap="butt" stroke-dasharray="none" stroke-miterlimit="4" fill="none">
			<path d="m-44.814,17.875,0,47.477,47.982,19.951,46.72-19.193,0-47.982l-47.225-19.446z" stroke-width="8.52432251"/>
			<path d="M-44.309,18.127,2.9153,37.32,49.887,18.38" stroke-width="6.39324226"/>
			<path d="m3.1679,84.797,0-47.73" stroke-width="6.39324226"/>
		</g>
		<rect height="10.089" width="15.446" y="39.13" x="122.59" fill="#FFF"/>
		<g transform="translate(-30.304576,15.783634)">
			<path stroke-linejoin="round" d="m152.42,27.158,0,6.1195,0,0c0,2.1549,3.684,3.9018,8.2284,3.9018s8.2284-1.7469,8.2284-3.9018v-6.2062" stroke-dashoffset="0" stroke="#000" stroke-linecap="butt" stroke-miterlimit="4" stroke-dasharray="none" stroke-width="3.54330707" fill="none"/>
			<path fill="#000" d="m165.2,27.224c0,1.1397-2.0574,2.0635-4.5954,2.0635s-4.5954-0.92386-4.5954-2.0635c0-1.1397,2.0574-2.0635,4.5954-2.0635s4.5954,0.92389,4.5954,2.0635z"/>
			<path stroke-linejoin="round" d="m113.26,208.74c0,2.371-3.2224,4.2932-7.1973,4.2932-3.975,0-7.1973-1.9221-7.1973-4.2932" transform="matrix(1.0248108,0,0,0.93760823,51.988261,-168.52552)" stroke-dashoffset="0" stroke="#000" stroke-linecap="butt" stroke-miterlimit="4" stroke-dasharray="none" stroke-width="1.80736661" fill="none"/>
			<path stroke-linejoin="round" d="m113.26,208.74c0,2.371-3.2224,4.2932-7.1973,4.2932-3.975,0-7.1973-1.9221-7.1973-4.2932" transform="matrix(1.1432487,0,0,-1.1663781,39.387099,270.79331)" stroke-dashoffset="0" stroke="#000" stroke-linecap="round" stroke-miterlimit="4" stroke-dasharray="none" stroke-width="3.06844807" fill="none"/>
			<path stroke-linejoin="round" d="m152.42,61.785,0,3.7204,0,0c0,2.1549,3.684,3.9018,8.2284,3.9018s8.2284-1.7469,8.2284-3.9018v-3.8071" stroke-dashoffset="0" stroke="#000" stroke-linecap="butt" stroke-miterlimit="4" stroke-dasharray="none" stroke-width="3.54330707" fill="none"/>
			<path stroke-linejoin="round" d="m113.26,208.74c0,2.371-3.2224,4.2932-7.1973,4.2932-3.975,0-7.1973-1.9221-7.1973-4.2932" transform="matrix(1.0248108,0,0,0.93760823,51.988261,-168.52552)" stroke-dashoffset="0" stroke="#000" stroke-linecap="butt" stroke-miterlimit="4" stroke-dasharray="none" stroke-width="1.80736661" fill="none"/>
			<path stroke-linejoin="round" d="m113.26,208.74c0,2.371-3.2224,4.2932-7.1973,4.2932-3.975,0-7.1973-1.9221-7.1973-4.2932" transform="matrix(1.1432487,0,0,-1.1663781,39.387099,270.79331)" stroke-dashoffset="0" stroke="#000" stroke-linecap="round" stroke-miterlimit="4" stroke-dasharray="none" stroke-width="3.06844807" fill="none"/>
		</g>
		<rect ry="6.4382" height="48.487" width="84.853" stroke="#b4b4b4" stroke-dasharray="none" stroke-miterlimit="4" y="-57.006" x="162.63" stroke-width="3.5433" fill="none"/>
		<path style="marker-end:url(#TriangleOutSJ);" d="m302.86,301.7c-75.714,0-57.223-47.657-120.13-50.095" transform="translate(0,-177.16536)" stroke-dashoffset="0" stroke="#b4b4b4" stroke-dasharray="10.62992126, 10.62992126" stroke-miterlimit="4" stroke-width="3.54330707" fill="none"/>
		<text style="letter-spacing:0px;word-spacing:0px;" font-weight="normal" xml:space="preserve" font-size="20px" font-stretch="normal" line-height="125%" font-variant="normal" y="-161.99785" x="145.52673" font-family="Source Code Pro" font-style="normal" fill="#787878"><tspan style="text-anchor:middle;text-align:center;" font-weight="normal" font-size="16px" font-style="normal" font-stretch="normal" font-variant="normal" y="-161.99785" x="145.52673" font-family="Arial" fill="#787878">Function Representation</tspan></text>
	</g>
</svg>
