<!-- Created with Inkscape (http://www.inkscape.org/) -->
<svg xmlns:rdf="http://www.w3.org/1999/02/22-rdf-syntax-ns#" xmlns="http://www.w3.org/2000/svg" height="354.33" width="708.66" version="1.1" xmlns:cc="http://creativecommons.org/ns#" xmlns:dc="http://purl.org/dc/elements/1.1/">
	<defs></defs>
	<metadata>
		<rdf:RDF>
			<cc:Work rdf:about="">
				<dc:format>image/svg+xml</dc:format>
				<dc:type rdf:resource="http://purl.org/dc/dcmitype/StillImage"/>
				<dc:title/>
			</cc:Work>
		</rdf:RDF>
	</metadata>
	<g transform="translate(0,177.16536)">
		<path stroke-linejoin="round" d="m94.31-19.259c0,2.7598-4.6177,4.997-10.314,4.997-5.6962,0-10.314-2.2372-10.314-4.997s4.6177-4.997,10.314-4.997c5.6962,0,10.314,2.2372,10.314,4.997z" stroke-dashoffset="0" stroke="#000" stroke-linecap="round" stroke-miterlimit="4" stroke-width="3.54330707" fill="none"/>
		<path stroke-linejoin="round" d="m73.682-19.37,0,22.209c0,2.7598,4.6177,4.997,10.314,4.997,5.6962,0,10.314-2.2372,10.314-4.997v-22.32" stroke-dashoffset="0" stroke="#000" stroke-linecap="round" stroke-miterlimit="4" stroke-width="3.54330707" fill="none"/>
		<path d="m89.401-19.014c0,0.9754-2.42,1.7661-5.4053,1.7661s-5.4053-0.79072-5.4053-1.7661c0-0.9754,2.42-1.7661,5.4053-1.7661s5.4053,0.79072,5.4053,1.7661z" fill="#000"/>
		<path stroke-linejoin="round" d="m167.24-105.05c0,1.333-2.0248,2.4136-4.5226,2.4136s-4.5226-1.0806-4.5226-2.4136,2.0248-2.4136,4.5226-2.4136,4.5226,1.0806,4.5226,2.4136z" stroke-dashoffset="0" stroke="#000" stroke-linecap="round" stroke-miterlimit="4" stroke-width="3.5433073" fill="none"/>
		<path stroke-linejoin="round" d="m158.19-104.39,0,10.727,0,12.452c0,1.333,2.0248,2.4136,4.5226,2.4136s4.5226-1.0806,4.5226-2.4136v-23.233" stroke-dashoffset="0" stroke="#000" stroke-linecap="round" stroke-miterlimit="4" stroke-width="3.5433073" fill="none"/>
		<path stroke-linejoin="round" d="m81.013-104.2c0,2.566-4.2756,4.6462-9.5498,4.6462s-9.5498-2.0802-9.5498-4.6462,4.2756-4.6462,9.5498-4.6462,9.5498,2.0802,9.5498,4.6462z" stroke-dashoffset="0" stroke="#000" stroke-linecap="round" stroke-miterlimit="4" stroke-width="3.54330707" fill="none"/>
		<path stroke-linejoin="round" d="m61.913-104.3,0,20.65c0,2.566,4.2756,4.6462,9.5498,4.6462s9.5498-2.0802,9.5498-4.6462v-20.753" stroke-dashoffset="0" stroke="#000" stroke-linecap="round" stroke-miterlimit="4" stroke-width="3.54330707" fill="none"/>
		<text style="letter-spacing:0px;word-spacing:0px;" font-weight="bold" xml:space="preserve" font-size="24px" font-stretch="normal" line-height="125%" font-variant="normal" y="-90.483345" x="38.490936" font-family="Thames" font-style="oblique" fill="#000000"><tspan x="38.490936" y="-90.483345">f<tspan style="baseline-shift:sub;" font-size="65.00091553%" font-style="normal">1</tspan></tspan></text>
		<text style="letter-spacing:0px;word-spacing:0px;" font-weight="bold" font-variant="normal" font-size="24px" font-stretch="normal" line-height="125%" font-style="oblique" y="-88.340485" x="134.56236" font-family="Thames" xml:space="preserve" fill="#000000"><tspan y="-88.340485" x="134.56236">f<tspan style="baseline-shift:sub;" font-size="65.00091553%" font-style="normal">2</tspan></tspan></text>
		<path stroke-linejoin="round" d="M107.06-29.769,72.062-73.34" stroke-dashoffset="0" stroke="#000" stroke-linecap="round" stroke-miterlimit="4" stroke-dasharray="none" stroke-width="3.54330707" fill="none"/>
		<path stroke-linejoin="round" d="M123.85-29.769,158.85-73.34" stroke-dashoffset="0" stroke="#000" stroke-linecap="round" stroke-miterlimit="4" stroke-dasharray="none" stroke-width="3.54330707" fill="none"/>
		<path stroke-linejoin="round" d="m120.7-15.116,0-6.0978,0,0c0-2.9398-2.3967-4.9756-5.3532-4.9756s-5.3532,1.8799-5.3532,4.9756v6.1561" stroke-dashoffset="0" stroke="#000" stroke-linecap="round" stroke-miterlimit="4" stroke-width="3.5433073" fill="none"/>
		<path stroke-linejoin="round" d="m159.56,35.231-35-43.571" stroke-dashoffset="0" stroke="#000" stroke-linecap="round" stroke-miterlimit="4" stroke-dasharray="none" stroke-width="3.54330707" fill="none"/>
		<path stroke-linejoin="round" d="M176.35,35.231,211.35-8.3405" stroke-dashoffset="0" stroke="#000" stroke-linecap="round" stroke-miterlimit="4" stroke-dasharray="none" stroke-width="3.54330707" fill="none"/>
		<path stroke-linejoin="round" d="m173.23,41.044,0,6.0978,0,0c0,2.9398-2.3967,4.9756-5.3532,4.9756s-5.3532-1.8799-5.3532-4.9756v-6.156" stroke-dashoffset="0" stroke="#000" stroke-linecap="round" stroke-miterlimit="4" stroke-width="3.5433073" fill="none"/>
		<text style="letter-spacing:0px;word-spacing:0px;" font-weight="bold" xml:space="preserve" font-size="24px" font-stretch="normal" line-height="125%" font-variant="normal" y="78.737488" x="163.43117" font-family="Thames" font-style="oblique" fill="#000000"><tspan x="163.43117" y="78.737488">f<tspan style="baseline-shift:sub;" font-size="65.00091553%"/></tspan></text>
		<g fill="#b4b4b4" transform="matrix(0.96560313,0,0,1.8063492,-83.008367,-166.31434)">
			<path style="baseline-shift:baseline;block-progression:tb;color:#000000;direction:ltr;text-indent:0;text-align:start;enable-background:accumulate;text-transform:none;" d="m351.95,68.656,0,14.156,30.891,0,0-14.156z" fill-rule="nonzero"/>
			<path fill-rule="evenodd" d="m399.21,75.737-24.52,14.173,0-28.346,24.52,14.173z"/>
		</g>
		<text style="letter-spacing:0px;word-spacing:0px;" font-weight="normal" xml:space="preserve" font-stretch="normal" line-height="125%" font-variant="normal" y="-135.59941" x="311.20746" font-family="Source Code Pro" font-style="normal" fill="#000000"><tspan font-size="16px" y="-135.59941" x="311.20746"><tspan fill="#787878">uint64_t</tspan> cubin[] = {</tspan><tspan font-size="16px" y="-115.59941" x="311.20746">       ...</tspan><tspan font-size="16px" y="-95.599411" x="311.20746"/><tspan font-size="14px" y="-77.474411" x="311.20746" fill="#787878"> 0x001fd400fc2007e1</tspan><tspan font-size="14px" y="-59.974415" x="311.20746"><tspan font-weight="bold"> 0x3958503f80070403</tspan><tspan fill="#787878"> // FADD R3,|R4|,-1.0</tspan></tspan><tspan font-size="14px" y="-42.474415" x="311.20746"><tspan font-weight="bold"> 0x3958503f00070505</tspan><tspan font-weight="normal" fill="#787878"> // FADD R5,|R5|,-0.5</tspan></tspan><tspan font-size="14px" y="-24.974413" x="311.20746"><tspan font-weight="bold"> 0x3958503e80070604</tspan><tspan font-weight="normal" fill="#787878"> // FADD R4,|R6|,-0.25</tspan></tspan><tspan font-size="14px" y="-7.4744134" x="311.20746" fill="#787878"> 0x001ffc00fe0007f6</tspan><tspan font-size="14px" y="10.025587" x="311.20746"><tspan font-weight="bold"> 0x5c60178000570303</tspan><tspan font-weight="normal" fill="#787878"> // FMNMX R3,R3,R5,!PT</tspan></tspan><tspan font-size="14px" y="27.525587" x="311.20746"><tspan font-weight="bold"> 0x5c60178000370404</tspan><tspan font-weight="normal" fill="#787878"> // FMNMX R4,R4,R3,!PT</tspan></tspan><tspan font-size="16px" y="46.900585" x="311.20746"> </tspan><tspan font-size="16px" y="66.900589" x="311.20746">       ...</tspan><tspan font-size="16px" y="86.900589" x="311.20746">};</tspan><tspan font-size="16px" y="106.90059" x="311.20746"/><tspan font-size="16px" y="126.90059" x="311.20746">cuModuleLoadData(cubin)</tspan><tspan font-size="16px" y="146.90059" x="311.20746">cuModuleGetFunction(&quot;f&quot;)</tspan></text>
		<text style="letter-spacing:0px;word-spacing:0px;" font-weight="bold" xml:space="preserve" font-size="24px" font-stretch="normal" line-height="125%" font-variant="normal" y="-25.126194" x="175.24075" font-family="Thames" font-style="oblique" fill="#000000"><tspan x="175.24075" y="-25.126194">f<tspan style="baseline-shift:sub;" font-size="65.00091553%" font-style="normal">3</tspan></tspan></text>
		<path stroke-linejoin="round" d="m129.04,52.551-8.2243,4.5317,0,18.939,16.001,7.7825,16.252-7.9945,0.11529-18.969-7.6588-3.8071" stroke-dashoffset="0" stroke="#000" stroke-linecap="butt" stroke-miterlimit="4" stroke-dasharray="none" stroke-width="3.54330707" fill="none"/>
		<path stroke-linejoin="round" d="m137.04,64.911-0.11529,19.397" stroke-dashoffset="0" stroke="#000" stroke-linecap="butt" stroke-miterlimit="4" stroke-dasharray="none" stroke-width="3.54330707" fill="none"/>
		<path stroke-linejoin="round" d="m120.79,57.213,16.164,7.6659,15.881-7.8154" stroke-dashoffset="0" stroke="#000" stroke-linecap="butt" stroke-miterlimit="4" stroke-dasharray="none" stroke-width="3.54330707" fill="none"/>
		<path stroke-linejoin="round" d="m145.22,50.074c0,2.1549-3.6396,3.9018-8.1293,3.9018s-8.1293-1.7469-8.1293-3.9018,3.6396-3.9018,8.1293-3.9018,8.1293,1.7469,8.1293,3.9018z" stroke-dashoffset="0" stroke="#000" stroke-linecap="round" stroke-miterlimit="4" stroke-width="3.54330707" fill="none"/>
		<path stroke-linejoin="round" d="m128.96,51.203,0,5.3619,0,0c0,2.1549,3.6396,3.9018,8.1293,3.9018s8.1293-1.7469,8.1293-3.9018v-5.4486" stroke-dashoffset="0" stroke="#000" stroke-linecap="round" stroke-miterlimit="4" stroke-width="3.54330707" fill="none"/>
		<path fill="#000" d="m141.69,50.265c0,0.85612-2.0574,1.5501-4.5954,1.5501s-4.5954-0.69401-4.5954-1.5501c0-0.85612,2.0574-1.5502,4.5954-1.5502s4.5954,0.69403,4.5954,1.5502z"/>
		<path stroke-linejoin="round" d="m198.89-37.544,0,16.439,13.905,6.7553,14.123-6.9394,0.10021-16.466-14.644-6.7162z" stroke-dashoffset="0" stroke="#000" stroke-linecap="butt" stroke-miterlimit="4" stroke-dasharray="none" stroke-width="3.54330707" fill="none"/>
		<path stroke-linejoin="round" d="m212.99-30.749-0.10022,16.837" stroke-dashoffset="0" stroke="#000" stroke-linecap="butt" stroke-miterlimit="4" stroke-dasharray="none" stroke-width="3.54330707" fill="none"/>
		<path stroke-linejoin="round" d="m198.87-37.432,14.046,6.6541,13.8-6.7838" stroke-dashoffset="0" stroke="#000" stroke-linecap="butt" stroke-miterlimit="4" stroke-dasharray="none" stroke-width="3.54330707" fill="none"/>
		<rect ry="8.3159" height="62.629" width="84.853" stroke="#b4b4b4" stroke-dasharray="none" stroke-miterlimit="4" y="-60.221" x="162.63" stroke-width="3.5433" fill="none"/>
		<rect ry="20.387" height="145.49" width="364.53" stroke="#b4b4b4" stroke-dasharray="none" stroke-miterlimit="4" y="-100.63" x="308.1" stroke-width="3.5433" fill="none"/>
		<text style="letter-spacing:0px;word-spacing:0px;" font-weight="bold" xml:space="preserve" font-size="20px" font-stretch="normal" line-height="125%" font-variant="normal" y="-158.96738" x="404.1929" font-family="Source Code Pro" font-style="normal" fill="#000000"><tspan font-size="16px" y="-158.96738" x="404.1929" font-weight="normal" fill="#000000">NVIDIA SASS SM 6.x</tspan></text>
	</g>
</svg>
